<mxfile host="app.diagrams.net" modified="2023-04-20T10:26:14.045Z" agent="Mozilla/5.0 (Windows NT 10.0; Win64; x64) AppleWebKit/537.36 (KHTML, like Gecko) Chrome/112.0.0.0 Safari/537.36" etag="fC_V_DJH4y2z2b2wQm39" version="21.2.1" type="device">
  <diagram name="Pagina-1" id="chKkPRjBdSX-aV4erDYl">
    <mxGraphModel dx="1195" dy="-506" grid="1" gridSize="10" guides="1" tooltips="1" connect="1" arrows="1" fold="1" page="1" pageScale="1" pageWidth="827" pageHeight="1169" math="0" shadow="0">
      <root>
        <mxCell id="0" />
        <mxCell id="1" parent="0" />
        <mxCell id="hy8gV9nIZ2Mti01YGrL4-1" value="contenere" style="rhombus;whiteSpace=wrap;html=1;fillColor=#FFFFFF;" vertex="1" parent="1">
          <mxGeometry x="1093" y="1571" width="80" height="80" as="geometry" />
        </mxCell>
        <mxCell id="hy8gV9nIZ2Mti01YGrL4-2" value="esaudire" style="rhombus;whiteSpace=wrap;html=1;fillColor=#FFFFFF;" vertex="1" parent="1">
          <mxGeometry x="943" y="1849" width="80" height="80" as="geometry" />
        </mxCell>
        <mxCell id="hy8gV9nIZ2Mti01YGrL4-3" value="effettuare" style="rhombus;whiteSpace=wrap;html=1;fillColor=#FFFFFF;" vertex="1" parent="1">
          <mxGeometry x="710" y="1680" width="80" height="80" as="geometry" />
        </mxCell>
        <mxCell id="hy8gV9nIZ2Mti01YGrL4-4" value="avere" style="rhombus;whiteSpace=wrap;html=1;fillColor=#FFFFFF;" vertex="1" parent="1">
          <mxGeometry x="1043" y="1320" width="80" height="80" as="geometry" />
        </mxCell>
        <mxCell id="hy8gV9nIZ2Mti01YGrL4-5" value="(1,N)" style="text;html=1;strokeColor=none;fillColor=none;align=center;verticalAlign=middle;whiteSpace=wrap;rounded=0;" vertex="1" parent="1">
          <mxGeometry x="693" y="1651" width="60" height="30" as="geometry" />
        </mxCell>
        <mxCell id="hy8gV9nIZ2Mti01YGrL4-6" value="(1,1)" style="text;html=1;strokeColor=none;fillColor=none;align=center;verticalAlign=middle;whiteSpace=wrap;rounded=0;" vertex="1" parent="1">
          <mxGeometry x="693" y="1760" width="60" height="30" as="geometry" />
        </mxCell>
        <mxCell id="hy8gV9nIZ2Mti01YGrL4-7" value="(1,1)" style="text;html=1;strokeColor=none;fillColor=none;align=center;verticalAlign=middle;whiteSpace=wrap;rounded=0;" vertex="1" parent="1">
          <mxGeometry x="973" y="1310" width="60" height="30" as="geometry" />
        </mxCell>
        <mxCell id="hy8gV9nIZ2Mti01YGrL4-8" value="(1,1)" style="text;html=1;strokeColor=none;fillColor=none;align=center;verticalAlign=middle;whiteSpace=wrap;rounded=0;" vertex="1" parent="1">
          <mxGeometry x="1133" y="1310" width="60" height="30" as="geometry" />
        </mxCell>
        <mxCell id="hy8gV9nIZ2Mti01YGrL4-9" value="(0,500)" style="text;html=1;strokeColor=none;fillColor=none;align=center;verticalAlign=middle;whiteSpace=wrap;rounded=0;" vertex="1" parent="1">
          <mxGeometry x="1033" y="1571" width="60" height="30" as="geometry" />
        </mxCell>
        <mxCell id="hy8gV9nIZ2Mti01YGrL4-10" value="(0,1)" style="text;html=1;strokeColor=none;fillColor=none;align=center;verticalAlign=middle;whiteSpace=wrap;rounded=0;" vertex="1" parent="1">
          <mxGeometry x="1173" y="1571" width="60" height="30" as="geometry" />
        </mxCell>
        <mxCell id="hy8gV9nIZ2Mti01YGrL4-11" value="(1,1)" style="text;html=1;strokeColor=none;fillColor=none;align=center;verticalAlign=middle;whiteSpace=wrap;rounded=0;" vertex="1" parent="1">
          <mxGeometry x="843" y="1849" width="60" height="30" as="geometry" />
        </mxCell>
        <mxCell id="hy8gV9nIZ2Mti01YGrL4-12" value="(1,N)" style="text;html=1;strokeColor=none;fillColor=none;align=center;verticalAlign=middle;whiteSpace=wrap;rounded=0;" vertex="1" parent="1">
          <mxGeometry x="1013" y="1849" width="60" height="30" as="geometry" />
        </mxCell>
        <mxCell id="hy8gV9nIZ2Mti01YGrL4-13" value="Articolo" style="swimlane;childLayout=stackLayout;horizontal=1;startSize=30;horizontalStack=0;rounded=1;fontSize=14;fontStyle=0;strokeWidth=2;resizeParent=0;resizeLast=1;shadow=0;dashed=0;align=center;fillColor=default;" vertex="1" parent="1">
          <mxGeometry x="1283" y="1521" width="160" height="149" as="geometry" />
        </mxCell>
        <mxCell id="hy8gV9nIZ2Mti01YGrL4-14" value="quantità&#xa;tipo_articolo&#xa;prezzo_acquisto&#xa;prezzo_vendita&#xa;nome_articolo&#xa;sconto&#xa;rincaro&#xa;ID_articolo" style="align=left;strokeColor=none;fillColor=none;spacingLeft=4;fontSize=12;verticalAlign=top;resizable=0;rotatable=0;part=1;" vertex="1" parent="hy8gV9nIZ2Mti01YGrL4-13">
          <mxGeometry y="30" width="160" height="119" as="geometry" />
        </mxCell>
        <mxCell id="hy8gV9nIZ2Mti01YGrL4-15" value="Bilancio" style="swimlane;childLayout=stackLayout;horizontal=1;startSize=30;horizontalStack=0;rounded=1;fontSize=14;fontStyle=0;strokeWidth=2;resizeParent=0;resizeLast=1;shadow=0;dashed=0;align=center;fillColor=default;" vertex="1" parent="1">
          <mxGeometry x="1313" y="1295" width="160" height="120" as="geometry" />
        </mxCell>
        <mxCell id="hy8gV9nIZ2Mti01YGrL4-16" value="costi&#xa;ricavi&#xa;profitti&#xa;rincaro_20&#xa;cod_bilancio" style="align=left;strokeColor=none;fillColor=none;spacingLeft=4;fontSize=12;verticalAlign=top;resizable=0;rotatable=0;part=1;" vertex="1" parent="hy8gV9nIZ2Mti01YGrL4-15">
          <mxGeometry y="30" width="160" height="90" as="geometry" />
        </mxCell>
        <mxCell id="hy8gV9nIZ2Mti01YGrL4-17" value="Fornitori  " style="swimlane;childLayout=stackLayout;horizontal=1;startSize=30;horizontalStack=0;rounded=1;fontSize=14;fontStyle=0;strokeWidth=2;resizeParent=0;resizeLast=1;shadow=0;dashed=0;align=center;fillColor=default;" vertex="1" parent="1">
          <mxGeometry x="1143" y="1829" width="160" height="120" as="geometry" />
        </mxCell>
        <mxCell id="hy8gV9nIZ2Mti01YGrL4-18" value="nome&#xa;" style="align=left;strokeColor=none;fillColor=none;spacingLeft=4;fontSize=12;verticalAlign=top;resizable=0;rotatable=0;part=1;" vertex="1" parent="hy8gV9nIZ2Mti01YGrL4-17">
          <mxGeometry y="30" width="160" height="90" as="geometry" />
        </mxCell>
        <mxCell id="hy8gV9nIZ2Mti01YGrL4-19" value="Ordini" style="swimlane;childLayout=stackLayout;horizontal=1;startSize=30;horizontalStack=0;rounded=1;fontSize=14;fontStyle=0;strokeWidth=2;resizeParent=0;resizeLast=1;shadow=0;dashed=0;align=center;fillColor=default;" vertex="1" parent="1">
          <mxGeometry x="670" y="1829" width="160" height="121" as="geometry" />
        </mxCell>
        <mxCell id="hy8gV9nIZ2Mti01YGrL4-20" value="nome_articolo&#xa;tipo_articolo&#xa;quantità&#xa;costo&#xa;data_ordine" style="align=left;strokeColor=none;fillColor=none;spacingLeft=4;fontSize=12;verticalAlign=top;resizable=0;rotatable=0;part=1;" vertex="1" parent="hy8gV9nIZ2Mti01YGrL4-19">
          <mxGeometry y="30" width="160" height="91" as="geometry" />
        </mxCell>
        <mxCell id="hy8gV9nIZ2Mti01YGrL4-21" value="Magazzino" style="swimlane;childLayout=stackLayout;horizontal=1;startSize=30;horizontalStack=0;rounded=1;fontSize=14;fontStyle=0;strokeWidth=2;resizeParent=0;resizeLast=1;shadow=0;dashed=0;align=center;fillColor=default;" vertex="1" parent="1">
          <mxGeometry x="843" y="1551" width="160" height="120" as="geometry" />
        </mxCell>
        <mxCell id="hy8gV9nIZ2Mti01YGrL4-22" value="nome&#xa;capacità&#xa;&#xa;" style="align=left;strokeColor=none;fillColor=none;spacingLeft=4;fontSize=12;verticalAlign=top;resizable=0;rotatable=0;part=1;" vertex="1" parent="hy8gV9nIZ2Mti01YGrL4-21">
          <mxGeometry y="30" width="160" height="90" as="geometry" />
        </mxCell>
        <mxCell id="hy8gV9nIZ2Mti01YGrL4-23" value="Offerte" style="swimlane;childLayout=stackLayout;horizontal=1;startSize=30;horizontalStack=0;rounded=1;fontSize=14;fontStyle=0;strokeWidth=2;resizeParent=0;resizeLast=1;shadow=0;dashed=0;align=center;fillColor=default;" vertex="1" parent="1">
          <mxGeometry x="1654" y="1541" width="160" height="128" as="geometry" />
        </mxCell>
        <mxCell id="hy8gV9nIZ2Mti01YGrL4-24" value="ID_offerta&#xa;data_inizio&#xa;data_fine&#xa;sconto_articolo" style="align=left;strokeColor=none;fillColor=none;spacingLeft=4;fontSize=12;verticalAlign=top;resizable=0;rotatable=0;part=1;" vertex="1" parent="hy8gV9nIZ2Mti01YGrL4-23">
          <mxGeometry y="30" width="160" height="98" as="geometry" />
        </mxCell>
        <mxCell id="hy8gV9nIZ2Mti01YGrL4-25" value="" style="endArrow=none;html=1;rounded=0;exitX=0.5;exitY=0;exitDx=0;exitDy=0;entryX=0;entryY=0.5;entryDx=0;entryDy=0;" edge="1" parent="1" source="hy8gV9nIZ2Mti01YGrL4-21" target="hy8gV9nIZ2Mti01YGrL4-4">
          <mxGeometry width="50" height="50" relative="1" as="geometry">
            <mxPoint x="813" y="1410" as="sourcePoint" />
            <mxPoint x="863" y="1360" as="targetPoint" />
            <Array as="points">
              <mxPoint x="923" y="1360" />
            </Array>
          </mxGeometry>
        </mxCell>
        <mxCell id="hy8gV9nIZ2Mti01YGrL4-26" value="" style="endArrow=none;html=1;rounded=0;entryX=1;entryY=0.5;entryDx=0;entryDy=0;" edge="1" parent="1" target="hy8gV9nIZ2Mti01YGrL4-4">
          <mxGeometry width="50" height="50" relative="1" as="geometry">
            <mxPoint x="1313" y="1360" as="sourcePoint" />
            <mxPoint x="873" y="1370" as="targetPoint" />
          </mxGeometry>
        </mxCell>
        <mxCell id="hy8gV9nIZ2Mti01YGrL4-27" value="" style="endArrow=none;html=1;rounded=0;entryX=0;entryY=0.5;entryDx=0;entryDy=0;" edge="1" parent="1" target="hy8gV9nIZ2Mti01YGrL4-1">
          <mxGeometry width="50" height="50" relative="1" as="geometry">
            <mxPoint x="1005" y="1610" as="sourcePoint" />
            <mxPoint x="883" y="1380" as="targetPoint" />
          </mxGeometry>
        </mxCell>
        <mxCell id="hy8gV9nIZ2Mti01YGrL4-28" value="" style="endArrow=none;html=1;rounded=0;exitX=1;exitY=0.5;exitDx=0;exitDy=0;entryX=0;entryY=0.5;entryDx=0;entryDy=0;" edge="1" parent="1" source="hy8gV9nIZ2Mti01YGrL4-1" target="hy8gV9nIZ2Mti01YGrL4-14">
          <mxGeometry width="50" height="50" relative="1" as="geometry">
            <mxPoint x="843" y="1440" as="sourcePoint" />
            <mxPoint x="1280" y="1610" as="targetPoint" />
          </mxGeometry>
        </mxCell>
        <mxCell id="hy8gV9nIZ2Mti01YGrL4-29" value="" style="endArrow=none;html=1;rounded=0;exitX=1;exitY=1;exitDx=0;exitDy=0;entryX=0;entryY=0.25;entryDx=0;entryDy=0;" edge="1" parent="1" source="hy8gV9nIZ2Mti01YGrL4-5" target="hy8gV9nIZ2Mti01YGrL4-22">
          <mxGeometry width="50" height="50" relative="1" as="geometry">
            <mxPoint x="853" y="1450" as="sourcePoint" />
            <mxPoint x="903" y="1400" as="targetPoint" />
            <Array as="points">
              <mxPoint x="753" y="1604" />
            </Array>
          </mxGeometry>
        </mxCell>
        <mxCell id="hy8gV9nIZ2Mti01YGrL4-31" value="" style="endArrow=none;html=1;rounded=0;exitX=0.5;exitY=1;exitDx=0;exitDy=0;entryX=0.5;entryY=0;entryDx=0;entryDy=0;" edge="1" parent="1" source="hy8gV9nIZ2Mti01YGrL4-3" target="hy8gV9nIZ2Mti01YGrL4-19">
          <mxGeometry width="50" height="50" relative="1" as="geometry">
            <mxPoint x="873" y="1470" as="sourcePoint" />
            <mxPoint x="923" y="1420" as="targetPoint" />
          </mxGeometry>
        </mxCell>
        <mxCell id="hy8gV9nIZ2Mti01YGrL4-32" value="" style="endArrow=none;html=1;rounded=0;exitX=1;exitY=0.5;exitDx=0;exitDy=0;entryX=0;entryY=0.5;entryDx=0;entryDy=0;" edge="1" parent="1" source="hy8gV9nIZ2Mti01YGrL4-2" target="hy8gV9nIZ2Mti01YGrL4-17">
          <mxGeometry width="50" height="50" relative="1" as="geometry">
            <mxPoint x="883" y="1480" as="sourcePoint" />
            <mxPoint x="1123" y="1890" as="targetPoint" />
          </mxGeometry>
        </mxCell>
        <mxCell id="hy8gV9nIZ2Mti01YGrL4-33" value="possedere" style="rhombus;whiteSpace=wrap;html=1;fillColor=default;" vertex="1" parent="1">
          <mxGeometry x="1513" y="1570" width="80" height="80" as="geometry" />
        </mxCell>
        <mxCell id="hy8gV9nIZ2Mti01YGrL4-34" value="" style="endArrow=none;html=1;rounded=0;exitX=1;exitY=0.5;exitDx=0;exitDy=0;entryX=-0.003;entryY=0.392;entryDx=0;entryDy=0;entryPerimeter=0;" edge="1" parent="1" source="hy8gV9nIZ2Mti01YGrL4-33" target="hy8gV9nIZ2Mti01YGrL4-24">
          <mxGeometry width="50" height="50" relative="1" as="geometry">
            <mxPoint x="893" y="1490" as="sourcePoint" />
            <mxPoint x="1650" y="1610" as="targetPoint" />
          </mxGeometry>
        </mxCell>
        <mxCell id="hy8gV9nIZ2Mti01YGrL4-35" value="" style="endArrow=none;html=1;rounded=0;exitX=0;exitY=0.5;exitDx=0;exitDy=0;entryX=1;entryY=0.5;entryDx=0;entryDy=0;" edge="1" parent="1" source="hy8gV9nIZ2Mti01YGrL4-33" target="hy8gV9nIZ2Mti01YGrL4-14">
          <mxGeometry width="50" height="50" relative="1" as="geometry">
            <mxPoint x="1510" y="1610" as="sourcePoint" />
            <mxPoint x="1480" y="1610" as="targetPoint" />
          </mxGeometry>
        </mxCell>
        <mxCell id="hy8gV9nIZ2Mti01YGrL4-36" value="(0,n)" style="text;html=1;strokeColor=none;fillColor=none;align=center;verticalAlign=middle;whiteSpace=wrap;rounded=0;" vertex="1" parent="1">
          <mxGeometry x="1573" y="1570" width="60" height="30" as="geometry" />
        </mxCell>
        <mxCell id="hy8gV9nIZ2Mti01YGrL4-37" value="(0,1)" style="text;html=1;strokeColor=none;fillColor=none;align=center;verticalAlign=middle;whiteSpace=wrap;rounded=0;" vertex="1" parent="1">
          <mxGeometry x="1463" y="1570" width="60" height="30" as="geometry" />
        </mxCell>
        <mxCell id="hy8gV9nIZ2Mti01YGrL4-38" value="nome(pk)" style="whiteSpace=wrap;html=1;shape=mxgraph.basic.oval_callout" vertex="1" parent="1">
          <mxGeometry x="1001.5" y="1490" width="100" height="60" as="geometry" />
        </mxCell>
        <mxCell id="hy8gV9nIZ2Mti01YGrL4-39" value="cod_ordine(pk)" style="whiteSpace=wrap;html=1;shape=mxgraph.basic.oval_callout" vertex="1" parent="1">
          <mxGeometry x="823" y="1750" width="140" height="79" as="geometry" />
        </mxCell>
        <mxCell id="hy8gV9nIZ2Mti01YGrL4-40" value="nome(pk)" style="whiteSpace=wrap;html=1;shape=mxgraph.basic.oval_callout" vertex="1" parent="1">
          <mxGeometry x="1293" y="1769" width="100" height="60" as="geometry" />
        </mxCell>
        <mxCell id="hy8gV9nIZ2Mti01YGrL4-41" value="ID_offerta(pk)" style="whiteSpace=wrap;html=1;shape=mxgraph.basic.oval_callout" vertex="1" parent="1">
          <mxGeometry x="1810" y="1491" width="100" height="60" as="geometry" />
        </mxCell>
        <mxCell id="hy8gV9nIZ2Mti01YGrL4-42" value="ID_articolo(pk)" style="whiteSpace=wrap;html=1;shape=mxgraph.basic.oval_callout" vertex="1" parent="1">
          <mxGeometry x="1443" y="1470" width="130" height="71" as="geometry" />
        </mxCell>
        <mxCell id="hy8gV9nIZ2Mti01YGrL4-43" value="cod_bilancio(pk)" style="whiteSpace=wrap;html=1;shape=mxgraph.basic.oval_callout" vertex="1" parent="1">
          <mxGeometry x="1463" y="1190" width="157" height="90" as="geometry" />
        </mxCell>
        <mxCell id="hy8gV9nIZ2Mti01YGrL4-44" value="" style="endArrow=diamondThin;endFill=0;endSize=24;html=1;rounded=0;exitX=0.75;exitY=0;exitDx=0;exitDy=0;" edge="1" parent="1" source="hy8gV9nIZ2Mti01YGrL4-21">
          <mxGeometry width="160" relative="1" as="geometry">
            <mxPoint x="1040" y="1550" as="sourcePoint" />
            <mxPoint x="1260" y="1300" as="targetPoint" />
            <Array as="points">
              <mxPoint x="963" y="1430" />
              <mxPoint x="1260" y="1430" />
            </Array>
          </mxGeometry>
        </mxCell>
        <mxCell id="hy8gV9nIZ2Mti01YGrL4-45" value="cod_bilancio(fk)" style="text;html=1;strokeColor=none;fillColor=none;align=center;verticalAlign=middle;whiteSpace=wrap;rounded=0;" vertex="1" parent="1">
          <mxGeometry x="1223" y="1265" width="60" height="30" as="geometry" />
        </mxCell>
        <mxCell id="hy8gV9nIZ2Mti01YGrL4-46" value="" style="endArrow=diamondThin;endFill=0;endSize=24;html=1;rounded=0;exitX=0.75;exitY=1;exitDx=0;exitDy=0;" edge="1" parent="1" source="hy8gV9nIZ2Mti01YGrL4-20">
          <mxGeometry width="160" relative="1" as="geometry">
            <mxPoint x="800" y="1790" as="sourcePoint" />
            <mxPoint x="1090" y="1850" as="targetPoint" />
            <Array as="points">
              <mxPoint x="790" y="2000" />
              <mxPoint x="1090" y="2000" />
            </Array>
          </mxGeometry>
        </mxCell>
        <mxCell id="hy8gV9nIZ2Mti01YGrL4-48" value="" style="endArrow=none;html=1;rounded=0;entryX=0;entryY=0.5;entryDx=0;entryDy=0;exitX=1.013;exitY=0.341;exitDx=0;exitDy=0;exitPerimeter=0;" edge="1" parent="1" source="hy8gV9nIZ2Mti01YGrL4-20" target="hy8gV9nIZ2Mti01YGrL4-2">
          <mxGeometry width="50" height="50" relative="1" as="geometry">
            <mxPoint x="1100" y="1680" as="sourcePoint" />
            <mxPoint x="1150" y="1630" as="targetPoint" />
          </mxGeometry>
        </mxCell>
        <mxCell id="hy8gV9nIZ2Mti01YGrL4-49" value="nome_fornitore(fk)" style="text;html=1;strokeColor=none;fillColor=none;align=center;verticalAlign=middle;whiteSpace=wrap;rounded=0;" vertex="1" parent="1">
          <mxGeometry x="1053" y="1810" width="60" height="30" as="geometry" />
        </mxCell>
        <mxCell id="hy8gV9nIZ2Mti01YGrL4-50" value="" style="endArrow=diamondThin;endFill=0;endSize=24;html=1;rounded=0;exitX=0.25;exitY=1;exitDx=0;exitDy=0;" edge="1" parent="1" source="hy8gV9nIZ2Mti01YGrL4-13">
          <mxGeometry width="160" relative="1" as="geometry">
            <mxPoint x="973" y="1561" as="sourcePoint" />
            <mxPoint x="1020" y="1580" as="targetPoint" />
            <Array as="points">
              <mxPoint x="1323" y="1720" />
              <mxPoint x="1020" y="1720" />
            </Array>
          </mxGeometry>
        </mxCell>
        <mxCell id="hy8gV9nIZ2Mti01YGrL4-51" value="nome_magazzino(fk)" style="text;html=1;strokeColor=none;fillColor=none;align=center;verticalAlign=middle;whiteSpace=wrap;rounded=0;fontSize=11;" vertex="1" parent="1">
          <mxGeometry x="1030.25" y="1561" width="65.5" height="9" as="geometry" />
        </mxCell>
        <mxCell id="hy8gV9nIZ2Mti01YGrL4-54" value="" style="endArrow=diamondThin;endFill=0;endSize=24;html=1;rounded=0;exitX=0.872;exitY=-0.011;exitDx=0;exitDy=0;exitPerimeter=0;" edge="1" parent="1" source="hy8gV9nIZ2Mti01YGrL4-19">
          <mxGeometry width="160" relative="1" as="geometry">
            <mxPoint x="810" y="1820" as="sourcePoint" />
            <mxPoint x="810" y="1570" as="targetPoint" />
            <Array as="points">
              <mxPoint x="810" y="1720" />
            </Array>
          </mxGeometry>
        </mxCell>
        <mxCell id="hy8gV9nIZ2Mti01YGrL4-56" value="nome_magazzino(fk)" style="text;html=1;strokeColor=none;fillColor=none;align=center;verticalAlign=middle;whiteSpace=wrap;rounded=0;fontSize=11;" vertex="1" parent="1">
          <mxGeometry x="770" y="1531" width="50" height="30" as="geometry" />
        </mxCell>
        <mxCell id="hy8gV9nIZ2Mti01YGrL4-58" value="" style="endArrow=diamondThin;endFill=0;endSize=24;html=1;rounded=0;exitX=0.75;exitY=1;exitDx=0;exitDy=0;entryX=0.672;entryY=1.061;entryDx=0;entryDy=0;entryPerimeter=0;" edge="1" parent="1" source="hy8gV9nIZ2Mti01YGrL4-13">
          <mxGeometry width="160" relative="1" as="geometry">
            <mxPoint x="1500" y="1780" as="sourcePoint" />
            <mxPoint x="1633.3200000000002" y="1542.83" as="targetPoint" />
            <Array as="points">
              <mxPoint x="1403" y="1720" />
              <mxPoint x="1633" y="1720" />
            </Array>
          </mxGeometry>
        </mxCell>
        <mxCell id="hy8gV9nIZ2Mti01YGrL4-60" value="id_offerta(fk)" style="text;html=1;strokeColor=none;fillColor=none;align=center;verticalAlign=middle;whiteSpace=wrap;rounded=0;" vertex="1" parent="1">
          <mxGeometry x="1594" y="1501" width="60" height="30" as="geometry" />
        </mxCell>
        <mxCell id="hy8gV9nIZ2Mti01YGrL4-65" value="Dipendenti" style="swimlane;childLayout=stackLayout;horizontal=1;startSize=30;horizontalStack=0;rounded=1;fontSize=14;fontStyle=0;strokeWidth=2;resizeParent=0;resizeLast=1;shadow=0;dashed=0;align=center;fillColor=default;" vertex="1" parent="1">
          <mxGeometry x="1544" y="1800" width="160" height="120" as="geometry" />
        </mxCell>
        <mxCell id="hy8gV9nIZ2Mti01YGrL4-66" value="nome&#xa;cognome&#xa;password &#xa;username&#xa;&#xa;" style="align=left;strokeColor=none;fillColor=none;spacingLeft=4;fontSize=12;verticalAlign=top;resizable=0;rotatable=0;part=1;" vertex="1" parent="hy8gV9nIZ2Mti01YGrL4-65">
          <mxGeometry y="30" width="160" height="90" as="geometry" />
        </mxCell>
        <mxCell id="hy8gV9nIZ2Mti01YGrL4-67" value="Utenti" style="swimlane;childLayout=stackLayout;horizontal=1;startSize=30;horizontalStack=0;rounded=1;fontSize=14;fontStyle=0;strokeWidth=2;resizeParent=0;resizeLast=1;shadow=0;dashed=0;align=center;fillColor=default;" vertex="1" parent="1">
          <mxGeometry x="1880" y="1800" width="160" height="160" as="geometry" />
        </mxCell>
        <mxCell id="hy8gV9nIZ2Mti01YGrL4-68" value="nome&#xa;cognome&#xa;email&#xa;password&#xa;città&#xa;via &#xa;numero_civico&#xa;provincia" style="align=left;strokeColor=none;fillColor=none;spacingLeft=4;fontSize=12;verticalAlign=top;resizable=0;rotatable=0;part=1;" vertex="1" parent="hy8gV9nIZ2Mti01YGrL4-67">
          <mxGeometry y="30" width="160" height="130" as="geometry" />
        </mxCell>
      </root>
    </mxGraphModel>
  </diagram>
</mxfile>
